<svg width="141" height="188" viewBox="0 0 141 188" fill="none" xmlns="http://www.w3.org/2000/svg">
<g clip-path="url(#clip0_3_4)">
<path d="M82.0664 11.75C36.7188 11.75 0 48.5789 0 94C0 139.421 36.7188 176.25 82.0664 176.25C104.318 176.25 124.477 167.364 139.274 152.97C141.11 151.171 141.587 148.38 140.412 146.104C139.237 143.827 136.704 142.542 134.17 142.983C130.572 143.607 126.9 143.938 123.118 143.938C87.5375 143.938 58.6766 115.003 58.6766 79.3125C58.6766 55.1516 71.8953 34.1117 91.4664 23.0227C93.7063 21.7375 94.8445 19.1672 94.2937 16.6703C93.743 14.1734 91.6133 12.3008 89.043 12.0805C86.7297 11.8969 84.4164 11.7867 82.0664 11.7867V11.75Z" fill="#612E93"/>
</g>
<defs>
<clipPath id="clip0_3_4">
<rect width="141" height="188" fill="white"/>
</clipPath>
</defs>
</svg>
