<svg width="163" height="163" viewBox="0 0 163 163" fill="none" xmlns="http://www.w3.org/2000/svg">
<g clip-path="url(#clip0_3_2)">
<path d="M115.087 0.381977C116.679 1.05053 117.825 2.48315 118.143 4.17045L124.478 38.5214L158.829 44.8249C160.517 45.1433 161.949 46.2894 162.618 47.8812C163.286 49.473 163.095 51.2876 162.109 52.7203L142.275 81.4999L162.109 110.248C163.095 111.68 163.286 113.495 162.618 115.087C161.949 116.679 160.517 117.825 158.829 118.143L124.478 124.478L118.143 158.829C117.825 160.517 116.679 161.949 115.087 162.618C113.495 163.286 111.68 163.095 110.248 162.109L81.4999 142.275L52.7521 162.109C51.3195 163.095 49.5048 163.286 47.913 162.618C46.3212 161.949 45.1751 160.517 44.8568 158.829L38.5214 124.478L4.17045 118.143C2.48315 117.825 1.05053 116.679 0.381974 115.087C-0.286581 113.495 -0.0955654 111.68 0.891349 110.248L20.7251 81.4999L0.891349 52.7521C-0.0955654 51.3195 -0.286581 49.5048 0.381974 47.913C1.05053 46.3212 2.48315 45.1751 4.17045 44.8568L38.5214 38.5214L44.8568 4.17045C45.1751 2.48315 46.3212 1.05053 47.913 0.381977C49.5048 -0.286577 51.3195 -0.0955616 52.7521 0.891352L81.4999 20.7251L110.248 0.891352C111.68 -0.0955616 113.495 -0.286577 115.087 0.381977ZM50.9374 81.4999C50.9374 73.3943 54.1574 65.6206 59.889 59.889C65.6206 54.1574 73.3943 50.9374 81.4999 50.9374C89.6056 50.9374 97.3793 54.1574 103.111 59.889C108.842 65.6206 112.062 73.3943 112.062 81.4999C112.062 89.6056 108.842 97.3793 103.111 103.111C97.3793 108.842 89.6056 112.062 81.4999 112.062C73.3943 112.062 65.6206 108.842 59.889 103.111C54.1574 97.3793 50.9374 89.6056 50.9374 81.4999ZM122.25 81.4999C122.25 70.6924 117.957 60.3274 110.315 52.6853C102.672 45.0432 92.3075 40.7499 81.4999 40.7499C70.6924 40.7499 60.3274 45.0432 52.6853 52.6853C45.0432 60.3274 40.7499 70.6924 40.7499 81.4999C40.7499 92.3075 45.0432 102.672 52.6853 110.315C60.3274 117.957 70.6924 122.25 81.4999 122.25C92.3075 122.25 102.672 117.957 110.315 110.315C117.957 102.672 122.25 92.3075 122.25 81.4999Z" fill="#D89B3F"/>
</g>
<defs>
<clipPath id="clip0_3_2">
<rect width="163" height="163" fill="white"/>
</clipPath>
</defs>
</svg>
